<svg width="58" height="40" viewBox="0 0 58 40" fill="none" xmlns="http://www.w3.org/2000/svg">
<path d="M24.5312 -0.0078125C12.0859 1.89062 0.765625 11.1719 0.765625 24.3906C0.765625 33.5312 6.03906 39.7188 13.6328 39.7188C21.6484 39.7188 26.3594 32.8984 26.3594 24.5312C19.6797 24.25 15.1094 20.1016 15.1094 14.1953C15.1094 8.35938 19.5391 4.49219 25.6562 3.22656L24.5312 -0.0078125ZM55.9609 -0.0078125C43.5156 1.89062 32.1953 11.1719 32.1953 24.3906C32.1953 33.5312 37.4688 39.7188 45.0625 39.7188C53.0781 39.7188 57.7891 32.8984 57.7891 24.5312C51.1094 24.25 46.4688 20.1016 46.4688 14.1953C46.4688 8.35938 50.8984 4.49219 57.0156 3.22656L55.9609 -0.0078125Z" fill="#FD665E"/>
</svg>
